<?xml version="1.0" standalone="no"?>
<!DOCTYPE svg PUBLIC "-//W3C//DTD SVG 20010904//EN"
 "http://www.w3.org/TR/2001/REC-SVG-20010904/DTD/svg10.dtd">
<svg version="1.0" xmlns="http://www.w3.org/2000/svg"
 width="512.000000pt" height="512.000000pt" viewBox="0 0 512.000000 512.000000"
 preserveAspectRatio="xMidYMid meet">

<g transform="translate(0.000000,512.000000) scale(0.100000,-0.100000)"
fill="#000000" stroke="none">
<path d="M1435 4909 c-314 -24 -594 -151 -823 -373 -241 -233 -375 -522 -402
-868 -12 -160 -12 -2056 0 -2216 26 -335 146 -605 374 -840 233 -241 522 -375
868 -402 160 -12 2056 -12 2216 0 346 27 635 161 868 402 228 235 348 505 374
840 12 160 12 2056 0 2216 -27 346 -161 635 -402 868 -235 228 -505 348 -840
374 -145 11 -2086 11 -2233 -1z m2322 -214 c244 -39 450 -145 622 -316 171
-172 277 -378 316 -622 22 -137 22 -2257 0 -2394 -39 -244 -145 -450 -316
-622 -172 -171 -378 -277 -622 -316 -137 -22 -2257 -22 -2394 0 -244 39 -450
145 -622 316 -171 172 -277 378 -316 622 -22 137 -22 2257 0 2394 39 244 145
450 316 622 169 168 378 276 613 315 126 21 2273 22 2403 1z"/>
<path d="M3837 4085 c-86 -22 -147 -102 -147 -192 1 -117 87 -203 206 -203 88
0 167 62 189 148 40 154 -94 288 -248 247z"/>
<path d="M2395 3775 c-488 -67 -893 -422 -1019 -895 -158 -588 131 -1190 692
-1443 510 -231 1136 -66 1474 388 137 185 214 383 239 620 44 414 -147 844
-486 1097 -175 130 -356 203 -575 233 -124 17 -203 17 -325 0z m417 -223 c195
-53 323 -127 468 -272 144 -144 218 -270 272 -468 19 -65 22 -104 22 -252 0
-188 -11 -250 -68 -391 -95 -235 -320 -460 -555 -555 -141 -57 -203 -68 -391
-68 -188 0 -250 11 -391 68 -235 95 -460 320 -555 555 -57 141 -68 203 -68
391 0 148 3 187 22 252 50 182 126 318 251 450 151 159 329 258 547 303 102
21 345 14 446 -13z"/>
</g>
</svg>
