<svg xmlns="http://www.w3.org/2000/svg" width="160" height="89" viewBox="0 0 160 89">
    <defs>
        <style>
            .cls-1{fill:#f26522}.cls-1,.cls-2{fill-rule:evenodd}
        </style>
    </defs>
    <g id="black-logo" transform="translate(-28.3 -78.9)">
        <path id="Path_717" d="M181.669 99.188h-36.19a44.208 44.208 0 0 0-74.356 0H34.931a6.391 6.391 0 0 0-4.656 1.979A6.7 6.7 0 0 0 28.3 105.9v35a6.7 6.7 0 0 0 1.975 4.736 6.51 6.51 0 0 0 4.656 1.979h36.19a44.208 44.208 0 0 0 74.356 0h36.19a6.391 6.391 0 0 0 4.656-1.979 6.577 6.577 0 0 0 1.977-4.736v-35.067a6.63 6.63 0 0 0-6.631-6.645" class="cls-1" data-name="Path 717"/>
        <g id="Group_3880" data-name="Group 3880" transform="translate(28.3 78.9)">
            <path id="Path_718" d="M181.669 99.188h-36.19a44.208 44.208 0 0 0-74.356 0H34.931a6.391 6.391 0 0 0-4.656 1.979A6.7 6.7 0 0 0 28.3 105.9v35a6.7 6.7 0 0 0 1.975 4.736 6.51 6.51 0 0 0 4.656 1.979h36.19a44.208 44.208 0 0 0 74.356 0h36.19a6.391 6.391 0 0 0 4.656-1.979 6.577 6.577 0 0 0 1.977-4.736v-35.067a6.63 6.63 0 0 0-6.631-6.645m6.279 41.637a6.2 6.2 0 0 1-1.834 4.454 6.137 6.137 0 0 1-4.374 1.838h-36.4a43.822 43.822 0 0 1-73.933 0H35a6.239 6.239 0 0 1-6.208-6.291v-34.993A6.285 6.285 0 0 1 35 99.542h36.4a43.822 43.822 0 0 1 73.933 0h36.4a6.239 6.239 0 0 1 6.208 6.292v34.992z" class="cls-2" data-name="Path 718" transform="translate(-28.3 -78.9)"/>
            <path id="Path_719" d="M125.132 115.029l.212-1.129a3.259 3.259 0 0 1-.494.494 3.978 3.978 0 0 1-2.822.847 10.341 10.341 0 0 1-2.328-.282l.635.988c.635.071 1.2.141 1.623.141a4.089 4.089 0 0 0 2.822-.847.6.6 0 0 0 .353-.212" class="cls-2" data-name="Path 719" transform="translate(-55.22 -89.157)"/>
            <path id="Path_720" d="M178.4 170.351l.282.212.847.847.423-2.61-1.2-1.2-.071.705z" class="cls-2" data-name="Path 720" transform="translate(-72.509 -104.891)"/>
            <path id="Path_721" d="M124.526 111.269a2.656 2.656 0 0 0 .635-1.058l-.423-1.411c-.071 0-.141.071-.212.071a12.721 12.721 0 0 1-2.822.705 22.808 22.808 0 0 1-3.1.071l.494 2.046a4.525 4.525 0 0 0 2.61.705 3.67 3.67 0 0 0 2.822-1.129" class="cls-2" data-name="Path 721" transform="translate(-54.896 -87.662)"/>
            <path id="Path_722" d="M176.3 157.982h-.564l-4.936-.282.635.635 1.411 1.411.353.353 1.411 1.411.564.564 1.27 1.27 1.129 1.129-1.058-4.938a8.247 8.247 0 0 0-.212-1.552" class="cls-2" data-name="Path 722" transform="translate(-70.271 -101.986)"/>
            <path id="Path_723" d="M183.087 171.893l-.847-.847-.847-.847-.494 2.61 1.27 1.27.847.847s.141-.212.212-.353a4.12 4.12 0 0 0 .353-.917 1.741 1.741 0 0 0-.212-1.27c0-.141-.141-.282-.282-.494" class="cls-2" data-name="Path 723" transform="translate(-73.246 -105.652)"/>
            <path id="Path_724" d="M177.534 173.288l-.988-.988-.282.071-.564.141-1.2.282 1.2 1.129.564.494 1.27 1.129.847.705a.069.069 0 0 1 .071.071 2.312 2.312 0 0 0 1.9-.141c.071 0 .141-.141.141-.141l-.141-.141z" class="cls-2" data-name="Path 724" transform="translate(-71.361 -106.268)"/>
            <path id="Path_725" d="M143.108 130.747a3.56 3.56 0 0 0-2.4-.847 3.73 3.73 0 0 0-2.681 1.129 4.11 4.11 0 0 0-1.129 2.892 4.285 4.285 0 0 0 1.129 2.963 3.73 3.73 0 0 0 2.681 1.129 3.56 3.56 0 0 0 2.4-.847 4.356 4.356 0 0 0 0-6.42" class="cls-2" data-name="Path 725" transform="translate(-60.286 -93.84)"/>
            <path id="Path_726" d="M171.405 163.6l.494.423.423-2.822-.917-.917-.282-.282-.423 2.892z" class="cls-2" data-name="Path 726" transform="translate(-70.241 -102.664)"/>
            <path id="Path_728" d="M173.611 171.329l1.481-.353-.847-.776-.988.212-1.058.353.847.776z" class="cls-2" data-name="Path 728" transform="translate(-70.683 -105.657)"/>
            <path id="Rectangle_605" d="M0 0h2.116v23.986H0z" data-name="Rectangle 605" transform="translate(9.383 35.231)"/>
            <path id="Path_730" d="M170.5 169.223l.494-.141 1.623-.353-1.2-1.129-2.116.564z" class="cls-2" data-name="Path 730" transform="translate(-69.829 -104.895)"/>
            <path id="Path_731" d="M173.753 162.7l-.141 1.2-.212 1.623 1.2 1.129.423-2.751-1.058-1.058z" class="cls-2" data-name="Path 731" transform="translate(-71.037 -103.455)"/>
            <path id="Path_732" d="M176.171 167.8l-.071.353.635.635.282.212.423-2.751-.917-.847z" class="cls-2" data-name="Path 732" transform="translate(-71.832 -104.247)"/>
            <path id="Rectangle_606" d="M0 0h2.116v8.183H0z" data-name="Rectangle 606" transform="translate(18.765 30.757)"/>
            <path id="Path_733" d="M161.053 150l-.353 3.175.635.635.282.212.423-3.1-.705-.635z" class="cls-2" data-name="Path 733" transform="translate(-67.296 -99.734)"/>
            <path id="Path_734" d="M165.5 157.834l.847.776.494.494.353-2.963-1.34-1.34z" class="cls-2" data-name="Path 734" transform="translate(-68.71 -101.14)"/>
            <path id="Path_735" d="M163.423 152.4l-.423 3.034.705.635.353.353.353-3.034-.705-.705z" class="cls-2" data-name="Path 735" transform="translate(-67.974 -100.437)"/>
            <path id="Path_736" d="M158.623 147.5l-.423 3.175.705.705.282.353.423-3.175-.705-.705z" class="cls-2" data-name="Path 736" transform="translate(-66.56 -99.001)"/>
            <path id="Path_737" d="M152.35 142.071l-.071-.071a9.6 9.6 0 0 0-2.4 1.623c-1.411 1.27-2.61 2.963-2.681 3.88l.071.282 4.444-.988.635-3.739.071-.847z" class="cls-2" data-name="Path 737" transform="translate(-63.32 -97.388)"/>
            <path id="Path_738" d="M186.645 106.614l-.071-.354-.071-.354-.141-.354-.141-.354-.212-.283-.212-.283-.212-.283-.282-.212-.282-.212-.282-.212-.353-.141-.353-.141-.353-.071-.353-.071h-38.164l-1.058-1.626-.705-1.063-.776-1.061-.776-.99-.847-.99-.847-.99-.917-.919-.917-.919-.917-.919-.988-.848-.988-.848-1.058-.778-1.058-.778-1.058-.707-1.129-.707-1.124-.631-1.129-.636-1.129-.566-1.2-.566-1.2-.495-1.2-.495-1.27-.424-1.27-.424-1.27-.495-1.27-.354-1.34-.283-1.34-.212-1.34-.212-1.34-.141-1.34-.141-1.414-.071h-2.822l-1.411.071-1.34.141-1.34.141-1.34.212-1.34.212-1.34.283-1.27.354-1.27.354-1.27.424-1.27.424-1.2.495-1.2.495-1.2.566-1.2.566-1.129.636-1.129.636-1.129.707-1.058.707-1.058.778-1.058.778-.988.848-.988.848-.917.919-.917.919-.917.919-.847.99-.847.99-.776.99-.776 1.061-.705 1.061-1.056 1.625H35.816l-.353.071-.353.071-.353.141-.353.141-.282.212-.282.214-.282.212-.212.283-.212.283-.212.283-.141.354-.141.354-.071.354-.071.354v35.775l.071.354.071.354.141.354.141.354.212.283.212.283.212.283.282.212.282.212.282.212.353.141.353.141.353.071.353.071h38.165l1.059 1.623.705 1.061.776 1.061.776.99.847.99.847.99.917.919.917.919.917.919.988.848.988.848 1.058.778 1.058.778 1.058.707 1.129.707 1.129.636 1.129.636 1.2.566 1.2.566 1.2.495 1.2.495 1.27.424 1.27.424 1.27.353 1.27.354 1.34.283 1.34.212 1.34.212 1.34.141 1.34.141 1.411.071h2.822l1.411-.071 1.34-.141 1.34-.141 1.34-.212 1.34-.212 1.34-.283 1.27-.354 1.27-.353 1.27-.424 1.27-.424 1.2-.495 1.2-.495 1.2-.566 1.129-.566 1.129-.636 1.129-.636 1.129-.707 1.058-.707 1.058-.778 1.058-.778.988-.848.988-.848.917-.919.917-.919.917-.919.847-.99.847-.99.776-.99.776-1.061.705-1.061 1.058-1.626h38.161l.353-.071.353-.071.353-.141.353-.141.282-.212.282-.212.282-.212.212-.283.212-.283.212-.283.141-.354.141-.354.071-.354.071-.354v-35.21zm-130.23-1.555h4.727v2.4h-4.727zm-12.628 33.159c0 .848-.282 2.475-2.751 2.475h-4.868v-31.18h7.055v1.343h-4.3v3.111h2.116c2.469 0 2.751 1.626 2.751 2.475zm9.453 2.475h-2.751V120.4h-2.116v20.291h-2.822v-28.703c0-2.121 1.552-2.475 2.751-2.475h2.116c1.2 0 2.751.283 2.751 2.475v28.705zm9.383 0h-2.751v-24.817l-2.116 3.394v21.423H55v-31.18h2.751v7.212l4.868-7.919zm9.453-18.665v18.595h-2.751v-20.292h-2.116v20.291h-2.751v-31.18h2.751v9.615h.635l1.552-9.545h2.751l-1.9 9.545c1.477.425 1.83 1.415 1.83 2.971zm68.078 22.907l-.071.141a1.479 1.479 0 0 0-.282.424l.141.141.141.141c1.693 1.909.353 4.454-1.623 5.232a3.312 3.312 0 0 1-2.469 0l-.353-.354-.071-.071-.564.566a38.2 38.2 0 0 1-7.69 5.727c-.494.283-1.058.566-1.552.848-.847.424-1.764.848-2.61 1.2a36.294 36.294 0 0 1-6.984 1.98 23.292 23.292 0 0 1-3.88.495c-.847.071-1.764.071-2.681.071-.776 0-1.623-.071-2.4-.071-.917-.071-1.834-.141-2.751-.283a34.591 34.591 0 0 1-5.362-1.2 19.3 19.3 0 0 1-2.822-1.061 34.108 34.108 0 0 1-3.316-1.485c-.494-.283-.988-.495-1.411-.778a36.989 36.989 0 0 1-12.981-12.656 36.486 36.486 0 0 1 7.407-46.734 43.67 43.67 0 0 1 5.573-3.889c.494-.283.988-.495 1.411-.778a27.893 27.893 0 0 1 3.316-1.485c.917-.354 1.834-.707 2.822-1.061 1.764-.495 3.527-.848 5.362-1.2.917-.071 1.764-.212 2.751-.283.847-.071 1.623-.071 2.4-.071.917 0 1.834.071 2.681.071a38.845 38.845 0 0 1 3.88.495 34.229 34.229 0 0 1 6.984 1.98c.847.354 1.764.778 2.61 1.2a16.819 16.819 0 0 1 1.552.848A40.294 40.294 0 0 1 135 98.767a38.847 38.847 0 0 1 4.938 5.868 36.322 36.322 0 0 1 .212 40.3zm15.661-4.242h-2.751v-26.867h-2.187v26.867h-2.751v-12.514c0-8.131.564-13.151 3.81-19.443 3.245 6.292 3.81 11.312 3.81 19.443v12.514zm9.242-29.978h-4.938v8.272h4.938v1.413h-4.938v18.95h4.938v1.343h-4.867c-2.187 0-2.822-1.273-2.822-2.475v-26.372c0-1.2.635-2.475 2.822-2.475h4.868zm8.959 29.978h-2.822v-20.362h-2.116v20.362h-2.751v-31.25h2.751v9.545h2.116v-9.545h2.822zm11.005 0h-10.37v-1.343h1.34v-27.433c0-2.192 1.552-2.475 2.751-2.475h2.187c1.2 0 2.751.283 2.751 2.475v27.433h1.34v1.343z" class="cls-2" data-name="Path 738" transform="translate(-29.537 -80.108)"/>
            <path id="Rectangle_607" d="M0 0h2.187v28.501H0z" data-name="Rectangle 607" transform="translate(149.277 30.639)"/>
            <path id="Path_739" d="M156.464 149.156l.353-3.245-.988-.988-.494-.423-.635 2.963v.071l1.129.988z" class="cls-2" data-name="Path 739" transform="translate(-65.529 -98.121)"/>
            <path id="Path_740" d="M168.4 160.663l.635.635.282.282.423-2.963-.988-.917z" class="cls-2" data-name="Path 740" transform="translate(-69.564 -101.99)"/>
            <path id="Path_741" d="M152.765 104.434a36.224 36.224 0 0 0-7.69-6.224c-.494-.283-1.058-.566-1.552-.849-.847-.424-1.764-.849-2.61-1.273a36.469 36.469 0 0 0-6.984-2.122 23.282 23.282 0 0 0-3.88-.5c-.847-.071-1.764-.071-2.681-.071-.776 0-1.623.071-2.4.071-.917.071-1.834.141-2.751.283a45.274 45.274 0 0 0-5.362 1.2c-.988.283-1.9.707-2.822 1.061-1.129.5-2.187 1.061-3.316 1.627-.494.283-.988.566-1.411.849a32.256 32.256 0 0 0-5.573 4.244 34.708 34.708 0 0 0 0 50.573 33.131 33.131 0 0 0 5.573 4.244c.494.283.988.566 1.411.849 1.058.566 2.187 1.061 3.316 1.627.917.354 1.834.707 2.822 1.061a34.771 34.771 0 0 0 5.362 1.273 17.26 17.26 0 0 0 2.751.283c.847.071 1.623.071 2.4.071.917 0 1.834-.071 2.681-.071a38.823 38.823 0 0 0 3.88-.5 39.808 39.808 0 0 0 6.984-2.122c.847-.424 1.764-.849 2.61-1.273.494-.283 1.058-.566 1.552-.849a34.563 34.563 0 0 0 6.914-5.446l-.071-.071c-.423.283-.988.707-1.27.92-.141.141-.353.283-.423.354a33.49 33.49 0 0 1-5.15 3.82c-.494.283-1.058.637-1.552.919-.494.212-.988.5-1.411.707h-.071a14.925 14.925 0 0 1 1.552-4.739 16.51 16.51 0 0 1 1.552-2.476c.564-.778 1.27-1.485 1.834-2.263l.212-.212-.071-.071-1.975-1.839-1.552-1.415-2.61-2.4-1.129-1.061-.423 7.639c.494.071 1.058.141 1.552.212a16.1 16.1 0 0 0 2.61-.071 10.926 10.926 0 0 0 1.481-.283 8.527 8.527 0 0 0-1.481 1.7 17.264 17.264 0 0 0-2.61 7.356 55.441 55.441 0 0 1-6.984-.849c-1.34-.212-2.61-.5-3.88-.778q-2.646-.637-5.079-1.485c-.282-.071-.494-.212-.776-.283.282-.566.494-1.061.776-1.627a48.958 48.958 0 0 1 4.515-7.144.218.218 0 0 0 .141.071h.423c1.34.071 2.61-.424 3.88.424a2.989 2.989 0 0 0 .494.354 9.889 9.889 0 0 0 4.021 2.263l.353-8.346-.494-.5-2.54-.071-1.833-1.617-3.88-3.4-5.079-4.456-1.27-1.132a8.972 8.972 0 0 0-1.411.071c-2.61.141-4.162.354-5.362 1.132a5.715 5.715 0 0 0-1.552 1.627l-1.129-.99a6.158 6.158 0 0 1 2.683-2.684 12.9 12.9 0 0 1 5.362-1.061 13.557 13.557 0 0 0 1.693.071l1.058.92 5.079 4.668 3.88 3.537 2.61 2.4 1.481-.354-.494-.5-.705-.637.705-.566.071-.071 1.975 1.839 1.693 1.556 1.693 1.556 1.9 1.768 1.058.92.847-.212 1.411-.283-1.411-1.344-1.834-1.839-1.9-1.839-1.693-1.627-1.693-1.627-2.046-1.98-1.06-1.051-.635-.566-5.15 1.132c-1.058-2.193-.988-4.385 1.411-6.932a6.032 6.032 0 0 1 1.693-.778 4.124 4.124 0 0 1 2.61.071 3.57 3.57 0 0 1 1.058.5l-.282 1.061.212.212 2.046 2.122 1.693 1.627 1.693 1.7 1.9 1.91.212.212.212-.707-.212-.283-1.552-1.91-2.61-3.183-6.49-7.781c-.141-5.093.776-7.639 3.457-9.124-.776-.5-2.257-1.061-3.951-1.839-1.27-.5-2.54-1.061-3.88-1.7-.564-.283-1.129-.637-1.693-.92a74.825 74.825 0 0 0 1.693-2.476 43.21 43.21 0 0 0 2.61-4.739c.423.212.847.354 1.27.566a38.321 38.321 0 0 1 6.984 4.244c.847.707 1.764 1.415 2.61 2.193.494.5 1.058 1.061 1.552 1.627.776.849 1.552 1.839 2.257 2.759l-2.257 1.839-1.552 1.273-1.34 1.061-1.27-1.132-1.834-1.627c-2.54 1.485-2.4 3.112-2.892 8.063l4.727 5.8 2.61 3.254 1.552 1.91 1.2 1.485-.071 2.546.635.637 5.926.424h.353a2.364 2.364 0 0 0-.353-.849c-.564-1.273-1.058-1.98 0-3.4a4.574 4.574 0 0 1 .564-.637.953.953 0 0 0 .353-.637c.282-.071.635-.071.988-.141a74.756 74.756 0 0 1 .071 13.227l.776.778a79.556 79.556 0 0 0 .141-14.146 10.866 10.866 0 0 1 2.116-.283c1.2-.212 2.54-.283 3.88-.424a34.583 34.583 0 0 1-3.88 12.52c-.494.849-.988 1.7-1.552 2.617a1.432 1.432 0 0 0 .353.071c.423-.637.847-1.344 1.27-1.98a34.719 34.719 0 0 0 0-33.739 39.666 39.666 0 0 0-5.15-7.073m-43.88 8.912l.494.071.847.141a17.331 17.331 0 0 0-.847 3.89 30.208 30.208 0 0 0 0 7.144c.141.849.212 1.768.353 2.617-.071-.5-.282-1.061-.353-1.627a34.236 34.236 0 0 1-.491-12.237zm4.092 26.666l-2.187 1.627-1.411 1.132-1.411 1.132a31 31 0 0 1-4.092-6.79 43.43 43.43 0 0 1-3.245-11.1c1.129-.283 2.187-.5 3.245-.849q1.8-.53 3.386-1.061c.705 1.415 1.481 2.9 2.187 4.385a22.127 22.127 0 0 1 1.27 3.4 2.571 2.571 0 0 0 .212.5c.635 1.061 2.046 1.627 2.046 2.617a23.729 23.729 0 0 0 .002 5.006zM100.631 106.7c1.058-1.2 2.046-2.4 3.175-3.466a50.211 50.211 0 0 1 4.233-3.466c-.705 1.344-.917 4.244-.705 7 0 .071.071.212.071.283a16.01 16.01 0 0 1-3.527.566c-1.058.071-2.187.071-3.316.071-.002-.288.069-.637.069-.988zm-.282 2.476c1.129-.071 2.328-.141 3.457-.283a22.681 22.681 0 0 0 3.739-.637c.282 1.839.212 4.173-.564 4.951-1.764 1.839-1.481 3.749-1.411 5.729a12.77 12.77 0 0 0 1.27 4.315c-.988.283-1.975.707-2.963.92-1.058.283-2.187.637-3.386.849a65.6 65.6 0 0 1-.142-15.847zm-3.949 4.383c.705-1.485 1.552-2.971 2.4-4.385h.776a68 68 0 0 0-.071 16.056c-1.058.141-2.046.354-3.1.5s-2.116.283-3.175.354a35.209 35.209 0 0 1 3.17-12.525zm0 29a34.613 34.613 0 0 1-3.245-14.5 2.186 2.186 0 0 1 .071-.707c1.058-.141 2.116-.283 3.175-.5s2.187-.424 3.175-.637a41.977 41.977 0 0 0 4.233 13.581 28.982 28.982 0 0 0 3.175 4.881l-3.175 2.476-3.034 2.4a34.24 34.24 0 0 1-4.375-6.994zm20.529 18.178c-.988-.283-1.9-.707-2.822-1.061-1.129-.5-2.187-1.061-3.316-1.627a9.335 9.335 0 0 1-1.411-.849 36.688 36.688 0 0 1-5.573-4.315c-.776-.778-1.552-1.556-2.328-2.4l2.328-1.839 3.88-3.041a20.129 20.129 0 0 0 1.623 1.839l1.411 1.415a30.009 30.009 0 0 0 3.316 2.617 27.764 27.764 0 0 0 2.822 1.839 41.894 41.894 0 0 0 5.362 2.617 3.436 3.436 0 0 0 .494.212 7.147 7.147 0 0 1-.494 1.061 43.8 43.8 0 0 0-1.481 4.6 38.279 38.279 0 0 1-3.813-1.068zm8.113-3.82c1.623.5 3.316.99 5.079 1.415 1.27.283 2.54.566 3.88.778 2.046.283 4.162.637 6.42.778A33.534 33.534 0 0 1 134 161.8a23.322 23.322 0 0 1-3.88.566c-.847.071-1.764.071-2.681.071-.776 0-1.623-.071-2.4-.071-.917-.071-1.834-.141-2.751-.283-.141 0-.282-.071-.494-.071a11.248 11.248 0 0 1 .494-1.415c.494-1.415 1.058-2.759 1.623-4.1a7.33 7.33 0 0 0 1.129.42zm-2.751-19.876a7.071 7.071 0 0 0 1.058-.92c.494.141.705.99.847 1.132a4.114 4.114 0 0 0 .917.778c.071.071.564.354.705.5 0 0 1.623.99 1.834 1.132.071.071 1.058.849 1.058.919 0 0 .282.849.141.99h-.494c-1.058 0-1.975-.212-3.175-.212h-.282a17.286 17.286 0 0 1-2.61-.283 3.775 3.775 0 0 1-1.34-.5 2.446 2.446 0 0 1-.776-.566c-.425-.989.915-1.979 2.115-2.969zm-5.362 11.1c1.552.5 3.316.141 5.362-.283a26.908 26.908 0 0 1 2.751-.566 20.185 20.185 0 0 1 2.892-.354 47.05 47.05 0 0 0-2.892 4.385 39.658 39.658 0 0 0-1.9 3.89c-.282-.071-.564-.283-.847-.354a54.466 54.466 0 0 1-5.362-2.759 28.527 28.527 0 0 1-2.822-1.98 32.48 32.48 0 0 1-3.316-2.9c-.494-.5-.988-.99-1.411-1.485a7.487 7.487 0 0 1-.705-.849l.705-.566 1.411-1.132 2.328-1.839a11.925 11.925 0 0 0 .988 3.89 4.42 4.42 0 0 0 2.816 2.908zm-2.822-37.064a7.515 7.515 0 0 1-1.764-.212 1.7 1.7 0 0 1-1.552-.92c-.776-1.132-1.058-3.324-1.2-6.154a6.438 6.438 0 0 0 1.2-.071 17.605 17.605 0 0 0 3.316-.354 18.44 18.44 0 0 0 2.822-.778 10.337 10.337 0 0 0 .988-.424 17.507 17.507 0 0 1 .282 7.356 31.64 31.64 0 0 1-1.2.778 6.115 6.115 0 0 1-2.894.785zm16.014 16.976a4.682 4.682 0 0 1-2.4.637 5.142 5.142 0 0 1-2.681-.778 5.763 5.763 0 0 1-2.54-4.739 5.54 5.54 0 0 1 2.54-4.668 5.218 5.218 0 0 1 2.681-.849 5.6 5.6 0 0 1 2.4 10.4zm0-14.854a10.717 10.717 0 0 1 3.034 1.839l-1.34.849a9.651 9.651 0 0 0-1.693-1.273 4.163 4.163 0 0 0-2.187-.707 13.657 13.657 0 0 0-2.963.5 9.753 9.753 0 0 0-2.751 1.273 9.955 9.955 0 0 0-4.586 6.932 4.384 4.384 0 0 0 .917 3.041l-1.058.849c-.212-.5-.423-.92-.635-1.415a6.134 6.134 0 0 1-.494-3.466 8.336 8.336 0 0 1 .494-1.415 11.376 11.376 0 0 1 5.362-6.012 9.267 9.267 0 0 1 2.751-1.061 15.879 15.879 0 0 1 2.751-.5 6.852 6.852 0 0 1 2.396.567zm0-8.983a32.759 32.759 0 0 1-2.751 3.961 13.037 13.037 0 0 1-1.9-1.344 1.265 1.265 0 0 0-.494-.354 3.59 3.59 0 0 0-2.751-.5 6.28 6.28 0 0 0-1.481.5c-3.527 0-.988-4.456-2.751-6.79a9.146 9.146 0 0 0-1.058-1.2 5.393 5.393 0 0 0-1.481-.99c.494.071.988.071 1.481.141 1.834.212 3.668.5 5.362.849.917.141 1.834.354 2.751.566 1.764.5 3.457.99 5.079 1.556l1.693.637zm2.116-3.89c-.635-.283-1.411-.5-2.116-.778-1.623-.5-3.316-1.061-5.079-1.415-.847-.212-1.834-.354-2.751-.566a107.924 107.924 0 0 0-5.362-.778c-.494-.071-1.058-.071-1.623-.141.071-.283.071-.5.141-.707a13.137 13.137 0 0 1 1.552-.5 28.154 28.154 0 0 1 5.362-1.273 17.261 17.261 0 0 1 2.751-.283c.847-.071 1.623-.071 2.4-.071.917 0 1.834.071 2.681.071a25.68 25.68 0 0 1 3.88.566c.282.071.494.071.847.141-.282.707-.564 1.415-.847 2.051-.638 1.213-1.202 2.486-1.837 3.689zm12.84 8.063c-.494-.5-1.058-.92-1.552-1.415a66.532 66.532 0 0 0-2.61-2.051 41.455 41.455 0 0 0-6.984-3.89c-.282-.071-.564-.212-.847-.283.282-.637.564-1.2.847-1.839.564-1.415 1.129-2.759 1.623-4.244a33.2 33.2 0 0 1 5.291 1.768c.847.424 1.764.849 2.61 1.273.494.283 1.058.637 1.552.92a34.487 34.487 0 0 1 7.69 6.3c.635.707 1.27 1.485 1.9 2.263l-1.9 1.485-4.444 3.537a22.794 22.794 0 0 0-3.178-3.813zm8.4 23.342c-.141-.283-.423-.5-.635-.849-1.834-1.839-5.855-4.1-7.69-6.012a3.161 3.161 0 0 1-.917-1.485l-.635-2.4-.776-2.971.776-.566 1.552-1.273 2.963-2.4a36.215 36.215 0 0 1 4.656 9.69 43.5 43.5 0 0 1 1.764 7.922 3.116 3.116 0 0 1-1.065.35zm8.183-1.2a33.474 33.474 0 0 0-3.951.5c-.776.071-1.482.283-2.187.354a44.692 44.692 0 0 0-2.751-11.176 33.164 33.164 0 0 0-3.739-7l3.739-2.971 2.61-2.051a33.41 33.41 0 0 1 2.328 3.749 33.8 33.8 0 0 1 4.021 16.2c-.006.701-.006 1.55-.076 2.398z" class="cls-2" data-name="Path 741" transform="translate(-47.297 -83.171)"/>
        </g>
    </g>
</svg>
